<svg width="73" height="18" viewBox="0 0 73 18" fill="none" xmlns="http://www.w3.org/2000/svg">
<g clip-path="url(#clip0)">
<path d="M31.0323 8.88179C31.0234 8.2932 30.9564 7.76388 30.6163 7.30475C30.4507 7.0829 30.2215 6.91677 29.9591 6.82847C29.2831 6.58617 28.5947 6.61477 27.9235 6.82223C27.3853 6.98862 26.8664 7.21532 26.3397 7.41758C26.2357 7.45606 26.141 7.50546 26.0152 7.56161C25.7672 6.9465 25.5233 6.34959 25.268 5.72564C25.6377 5.55041 25.9861 5.37154 26.3454 5.21816C27.1732 4.86406 28.0316 4.62124 28.9342 4.56665C29.8369 4.51205 30.7276 4.55989 31.5491 4.99769C32.4783 5.48958 33.149 6.19984 33.4298 7.23352C33.4703 7.36882 33.4946 7.50845 33.5021 7.64949C33.538 8.9915 33.5863 10.3335 33.592 11.6755C33.5957 12.5927 33.5354 13.5105 33.5083 14.4282C33.5035 14.554 33.4511 14.6733 33.3617 14.762C32.7195 15.4692 31.9339 15.9579 31.0437 16.286C30.0892 16.6343 29.0726 16.7804 28.0586 16.715C27.1227 16.663 26.3147 16.2798 25.6315 15.6439C24.9483 15.008 24.4709 14.24 24.3378 13.2988C24.1558 12.0099 24.5276 10.8914 25.4542 9.97111C26.05 9.37939 26.7842 9.07366 27.6115 8.9655C28.5266 8.84643 29.4448 8.87815 30.3631 8.88075L31.0323 8.88179ZM30.9122 10.9772C30.8582 10.9666 30.8037 10.9591 30.7489 10.9549C30.4369 10.9486 30.1213 10.9377 29.8078 10.9424C29.4318 10.9481 29.0544 10.9497 28.6805 10.985C28.2942 11.0219 27.9193 11.1348 27.6198 11.3927C27.1227 11.8211 26.975 12.3806 27.0962 13.0113C27.247 13.7912 27.6827 14.3362 28.4595 14.5681C28.8601 14.6879 29.2842 14.7057 29.6934 14.6201C30.0737 14.5504 30.4285 14.3802 30.7208 14.1271C30.7703 14.0888 30.811 14.0402 30.8402 13.9848C30.8693 13.9294 30.8862 13.8683 30.8898 13.8058C30.9018 13.5318 30.9371 13.2583 30.9392 12.9843C30.9434 12.3567 30.934 11.7291 30.9288 11.1015C30.9257 11.0598 30.9201 11.0183 30.9122 10.9772Z" fill="white"/>
<path d="M62.307 10.9254C60.0764 10.9254 57.8873 10.8775 55.6676 10.9358C55.6791 11.0918 55.6858 11.2394 55.6999 11.3834C55.7571 11.9726 55.8839 12.545 56.133 13.0853C56.3266 13.5259 56.6273 13.9113 57.0076 14.2063C57.6107 14.6644 58.2991 14.7393 59.0214 14.6462C59.6183 14.5692 60.1741 14.3509 60.7284 14.1309C60.9827 14.0306 61.2348 13.9229 61.5083 13.8111C61.7683 14.355 62.0231 14.8895 62.2883 15.4397C62.2394 15.475 62.1936 15.5145 62.1427 15.5436C61.0612 16.1853 59.8996 16.5986 58.6449 16.7078C57.501 16.8071 56.4091 16.6194 55.4212 15.9867C54.7483 15.5556 54.2772 14.9467 53.8831 14.2656C53.3977 13.4181 53.1038 12.4747 53.0221 11.5015C52.8571 9.72703 53.2339 8.07495 54.1525 6.54523C54.793 5.48191 55.7493 4.90423 56.9462 4.70509C58.0464 4.51163 59.1797 4.70024 60.158 5.23961C60.706 5.53651 61.0877 6.00395 61.4023 6.52807C61.8182 7.21909 62.0371 7.98083 62.1422 8.77013C62.2274 9.40656 62.2545 10.0508 62.3054 10.694C62.3117 10.76 62.307 10.8287 62.307 10.9254ZM59.6032 8.90532C59.4737 8.31205 59.3853 7.70577 58.9969 7.20297C58.8021 6.95308 58.5285 6.77643 58.2206 6.70173C57.4017 6.48491 56.5786 6.8624 56.2266 7.63766C56.1007 7.91376 56.0269 8.21378 55.9354 8.50443C55.8943 8.63598 55.8678 8.77273 55.835 8.90532C56.055 8.96356 59.3781 8.96616 59.6042 8.90688L59.6032 8.90532Z" fill="white"/>
<path d="M47.6732 1.86323L50.3349 1.45142V4.7204C50.9255 4.75576 51.4881 4.71728 52.0539 4.77812V6.79192C51.4819 6.80128 50.9219 6.78412 50.338 6.81948C50.338 6.93283 50.338 7.01758 50.338 7.10233C50.3331 9.04074 50.329 10.9793 50.3255 12.9181C50.3255 13.2233 50.3499 13.529 50.3775 13.8332C50.4212 14.3012 50.6806 14.5981 51.1341 14.7119C51.3842 14.7754 51.641 14.8112 51.8948 14.8596L52.1495 14.9116V16.6207C52.1209 16.6349 52.0905 16.645 52.0591 16.6509C51.3036 16.6847 50.5512 16.6649 49.8206 16.4429C49.1072 16.2276 48.5124 15.8376 48.1089 15.195C47.8796 14.831 47.7631 14.4218 47.7127 13.9991C47.6822 13.7343 47.6673 13.468 47.668 13.2015C47.668 9.52014 47.6701 5.83918 47.6742 2.15856L47.6732 1.86323Z" fill="white"/>
<path d="M63.7699 1.86629L66.3437 1.42017V1.7753C66.3437 5.11864 66.3451 8.46197 66.3479 11.8053C66.3479 12.4173 66.3531 13.0293 66.3578 13.6418C66.3619 14.246 66.5824 14.5538 67.1595 14.7337C67.3557 14.7879 67.5548 14.8307 67.7559 14.8616C67.8786 14.8845 68.0029 14.8954 68.1521 14.9136V16.6596C68.1383 16.6711 68.1219 16.6792 68.1043 16.683C67.3732 16.7127 66.6453 16.7007 65.9345 16.4927C65.5038 16.3688 65.1028 16.1586 64.7558 15.875C64.1095 15.3462 63.8464 14.6375 63.7788 13.8383C63.759 13.6044 63.7616 13.3678 63.7621 13.1328C63.7621 9.47537 63.7647 5.81833 63.7699 2.16163V1.86629Z" fill="white"/>
<path d="M42.5008 16.5059H39.901C39.8979 16.3973 39.8927 16.2979 39.8922 16.1997C39.8894 14.6377 39.8872 13.0758 39.8854 11.5138C39.8823 10.2659 39.8745 9.01801 39.875 7.77011C39.8758 7.54383 39.8932 7.31791 39.927 7.09416C39.9655 6.83886 40.0991 6.6262 40.2848 6.44681C41.306 5.45265 42.5294 4.85678 43.9245 4.59992C44.7987 4.43961 45.6948 4.43837 46.5695 4.59628C46.6158 4.6046 46.662 4.615 46.7073 4.62644C46.7296 4.63216 46.751 4.64308 46.7941 4.65972C46.4988 5.41054 46.139 6.12808 45.8 6.8373C45.3949 6.8373 45.0112 6.82534 44.6285 6.8399C43.9676 6.86184 43.3189 7.02345 42.7249 7.3141C42.5565 7.39678 42.4935 7.49973 42.4941 7.69367C42.5013 10.5361 42.5031 13.3786 42.4993 16.221L42.5008 16.5059Z" fill="white"/>
<path d="M37.9819 4.83032C38.0095 8.72586 37.9793 12.5985 38.0043 16.4951H35.4601C35.4539 16.401 35.4414 16.3027 35.4414 16.2044C35.4414 13.7554 35.4414 11.3061 35.4414 8.85636C35.4414 7.73377 35.4508 6.61118 35.4554 5.48859C35.4554 5.40332 35.4554 5.31804 35.4554 5.21093L37.9819 4.83032Z" fill="white"/>
<path d="M36.6035 3.68536C35.3613 3.68224 34.5835 2.44577 35.0988 1.27847C35.4154 0.562483 35.9593 0.290546 36.7439 0.295225C37.7953 0.304065 38.5747 1.3497 38.3241 2.37142C38.1239 3.18776 37.4687 3.68744 36.6035 3.68536Z" fill="white"/>
<path d="M15.9867 0.263916C17.0181 0.278274 18.0021 0.474286 18.921 0.94247C19.7312 1.3579 20.3918 1.93876 20.8426 2.73936C21.1357 3.26787 21.3279 3.84642 21.4094 4.44542C21.5771 5.59528 21.4076 6.70768 21.029 7.79543C20.8065 8.4334 20.4986 9.03174 20.1652 9.61947C19.4859 10.8158 18.6131 11.8527 17.598 12.7719C16.2955 13.9524 14.8672 14.9856 13.339 15.8529C12.747 16.1878 12.1331 16.469 11.4728 16.641C11.0683 16.7504 10.6507 16.8033 10.2317 16.7983C9.68021 16.787 9.24864 16.5355 8.91305 16.1116C8.60316 15.7312 8.44349 15.25 8.46435 14.7595C8.46799 14.623 8.48766 14.4875 8.52293 14.3556C8.72266 13.6449 8.99407 12.9642 9.39977 12.3434C9.70981 11.8692 10.0794 11.4482 10.5627 11.147C11.1002 10.8118 11.6844 10.6685 12.3163 10.8068C12.5139 10.8532 12.6998 10.9398 12.8626 11.0612C13.2786 11.3589 13.2567 11.8262 13.057 12.1246C12.8859 12.3839 12.6946 12.6292 12.4849 12.8584C12.1297 13.2416 11.7523 13.604 11.384 13.9748C11.0581 14.3029 10.7518 14.6471 10.5035 15.0395C10.3748 15.243 10.256 15.4505 10.2205 15.6949C10.1757 16.0014 10.3346 16.2102 10.6434 16.239C10.8031 16.252 10.9639 16.2358 11.1179 16.1912C11.5925 16.0598 12.0331 15.8479 12.4659 15.6194C13.1334 15.2658 13.7494 14.8335 14.3498 14.3775C15.0777 13.8247 15.7854 13.2482 16.4376 12.6071C17.1804 11.8777 17.8426 11.0849 18.3492 10.1701C18.7194 9.50211 18.9921 8.79671 19.1133 8.04013C19.2205 7.37375 19.1606 6.72453 18.8525 6.11278C18.7041 5.8104 18.4719 5.55718 18.1838 5.38335C18.0507 5.30311 17.904 5.24829 17.751 5.22167C17.1941 5.12272 16.6554 5.20388 16.126 5.38085C15.5741 5.56563 15.0622 5.8353 14.5645 6.12994C13.4845 6.77167 12.4033 7.41308 11.3741 8.13564C10.8581 8.4977 10.3579 8.88286 9.85221 9.25928C9.39541 9.59949 8.94172 9.94376 8.44253 10.2219C8.03744 10.4529 7.59899 10.6196 7.14285 10.716C6.57761 10.8308 6.05661 10.7241 5.578 10.4163C5.08131 10.097 4.73356 9.6588 4.58088 9.07887C4.48366 8.71275 4.52199 8.34976 4.60581 7.98832C4.72827 7.45771 4.96072 6.97704 5.25051 6.52134C5.96719 5.39583 6.86833 4.44105 7.91624 3.62485C9.46925 2.41537 11.1781 1.484 13.0265 0.81013C13.9755 0.462417 14.9763 0.277749 15.9867 0.263916Z" fill="white"/>
</g>
<defs>
<clipPath id="clip0">
<rect width="71.7543" height="17.1067" fill="white" transform="translate(0.464844 0.263916)"/>
</clipPath>
</defs>
</svg>
