<svg width="25" height="25" viewBox="0 0 25 25" fill="none" xmlns="http://www.w3.org/2000/svg">
<g clip-path="url(#clip0)">
<path d="M0.847656 0.522705H24.3709V13.2213L23.2066 15.0405L24.3709 16.6597V24.046H0.847656V12.0751L1.57537 11.2383L0.847656 10.4378V0.522705Z" fill="white"/>
<path d="M5.41406 16.9157V13.2225H9.32441L9.74395 13.7695L10.1774 13.2225H24.3709V16.661C24.3709 16.661 23.9998 16.912 23.5705 16.9157H15.7112L15.2382 16.3335V16.9157H13.6881V15.9219C13.6881 15.9219 13.4764 16.0606 13.0186 16.0606H12.4911V16.9157H10.1442L9.72525 16.357L9.29988 16.9157H5.41406Z" fill="#181D36"/>
<path d="M0.847656 10.4383L1.72945 8.38257H3.25443L3.75486 9.53413V8.38257H5.65055L5.94846 9.21488L6.23727 8.38257H14.7469V8.801C14.7469 8.801 15.1943 8.38257 15.9295 8.38257L18.6906 8.39222L19.1824 9.52871V8.38257H20.7688L21.2054 9.03539V8.38257H22.8064V12.0757H21.2054L20.787 11.4208V12.0757H18.4562L18.2218 11.4935H17.5952L17.3646 12.0757H15.7839C15.1513 12.0757 14.7469 11.6658 14.7469 11.6658V12.0757H12.3637L11.8907 11.4935V12.0757H3.02852L2.79428 11.4935H2.16969L1.93711 12.0757H0.847656V10.4383Z" fill="#181D36"/>
<path d="M2.04092 8.83997L0.851562 11.6053H1.62589L1.84534 11.0515H3.12111L3.33943 11.6053H4.13081L2.9426 8.83997H2.04092ZM2.48095 9.48354L2.86983 10.4512H2.09095L2.48095 9.48354Z" fill="white"/>
<path d="M4.21484 11.6049V8.8396L5.31521 8.84369L5.95522 10.6266L6.5799 8.8396H7.67146V11.6049H6.98014V9.56731L6.24732 11.6049H5.64103L4.90617 9.56731V11.6049H4.21484Z" fill="white"/>
<path d="M8.14453 11.6049V8.8396H10.4004V9.45816H8.84313V9.93117H10.3641V10.5133H8.84313V11.0045H10.4004V11.6049H8.14453Z" fill="white"/>
<path d="M10.8008 8.83997V11.6053H11.4921V10.6229H11.7832L12.6121 11.6053H13.4569L12.5473 10.5865C12.9206 10.555 13.3057 10.2346 13.3057 9.7371C13.3057 9.15518 12.849 8.83997 12.3392 8.83997H10.8008ZM11.4921 9.45852H12.2824C12.4719 9.45852 12.6098 9.60681 12.6098 9.74961C12.6098 9.93332 12.4312 10.0407 12.2926 10.0407H11.4921V9.45852Z" fill="white"/>
<path d="M14.2918 11.6053H13.5859V8.83997H14.2918V11.6053Z" fill="white"/>
<path d="M15.9661 11.6053H15.8137C15.0765 11.6053 14.6289 11.0245 14.6289 10.234C14.6289 9.42398 15.0715 8.83997 16.0025 8.83997H16.7666V9.49491H15.9745C15.5966 9.49491 15.3293 9.78984 15.3293 10.2408C15.3293 10.7763 15.6349 11.0013 16.0752 11.0013H16.2572L15.9661 11.6053Z" fill="white"/>
<path d="M17.4706 8.83997L16.2812 11.6053H17.0556L17.275 11.0515H18.5508L18.7691 11.6053H19.5605L18.3723 8.83997H17.4706ZM17.9106 9.48354L18.2995 10.4512H17.5206L17.9106 9.48354Z" fill="white"/>
<path d="M19.6406 11.6053V8.83997H20.5196L21.6418 10.5774V8.83997H22.3332V11.6053H21.4826L20.332 9.82238V11.6053H19.6406Z" fill="white"/>
<path d="M5.88672 16.4408V13.6755H8.14262V14.2941H6.58532V14.7671H8.10624V15.3493H6.58532V15.8405H8.14262V16.4408H5.88672Z" fill="white"/>
<path d="M16.9414 16.4408V13.6755H19.1973V14.2941H17.64V14.7671H19.1536V15.3493H17.64V15.8405H19.1973V16.4408H16.9414Z" fill="white"/>
<path d="M8.22928 16.4408L9.32767 15.0752L8.20312 13.6755H9.0741L9.74383 14.5408L10.4158 13.6755H11.2527L10.1429 15.0582L11.2433 16.4408H10.3725L9.72222 15.5892L9.08775 16.4408H8.22928Z" fill="white"/>
<path d="M11.3281 13.6755V16.4408H12.0376V15.5676H12.7654C13.3811 15.5676 13.8478 15.2409 13.8478 14.6056C13.8478 14.0794 13.4818 13.6755 12.8552 13.6755H11.3281ZM12.0376 14.3009H12.804C13.0029 14.3009 13.1451 14.4228 13.1451 14.6193C13.1451 14.8038 13.0037 14.9377 12.8017 14.9377H12.0376V14.3009Z" fill="white"/>
<path d="M14.1484 13.6755V16.4408H14.8398V15.4584H15.1308L15.9598 16.4408H16.8046L15.8949 15.422C16.2683 15.3905 16.6534 15.0701 16.6534 14.5727C16.6534 13.9908 16.1966 13.6755 15.6869 13.6755H14.1484ZM14.8398 14.2941H15.63C15.8196 14.2941 15.9575 14.4424 15.9575 14.5852C15.9575 14.7689 15.7788 14.8763 15.6402 14.8763H14.8398V14.2941Z" fill="white"/>
<path d="M19.5175 16.4408V15.8405H20.901C21.1057 15.8405 21.1944 15.7299 21.1944 15.6085C21.1944 15.4923 21.106 15.3747 20.901 15.3747H20.2758C19.7324 15.3747 19.4297 15.0436 19.4297 14.5465C19.4297 14.1031 19.7069 13.6755 20.5144 13.6755H21.8607L21.5696 14.2977H20.4053C20.1827 14.2977 20.1142 14.4145 20.1142 14.5261C20.1142 14.6407 20.1989 14.7671 20.3689 14.7671H21.0238C21.6297 14.7671 21.8925 15.1107 21.8925 15.5608C21.8925 16.0446 21.5996 16.4408 20.9909 16.4408H19.5175Z" fill="white"/>
<path d="M22.0565 16.4408V15.8405H23.4401C23.6448 15.8405 23.7334 15.7299 23.7334 15.6085C23.7334 15.4923 23.6451 15.3747 23.4401 15.3747H22.8149C22.2714 15.3747 21.9688 15.0436 21.9688 14.5465C21.9688 14.1031 22.2459 13.6755 23.0535 13.6755H24.3997L24.1086 14.2977H22.9443C22.7218 14.2977 22.6532 14.4145 22.6532 14.5261C22.6532 14.6407 22.7379 14.7671 22.9079 14.7671H23.5629C24.1687 14.7671 24.4316 15.1107 24.4316 15.5608C24.4316 16.0446 24.1386 16.4408 23.5299 16.4408H22.0565Z" fill="white"/>
</g>
<defs>
<clipPath id="clip0">
<rect width="23.5818" height="23.5233" fill="white" transform="translate(0.847656 0.521729)"/>
</clipPath>
</defs>
</svg>
