<svg width="103" height="21" viewBox="0 0 103 21" fill="none" xmlns="http://www.w3.org/2000/svg">
<g clip-path="url(#clip0)">
<path d="M44.5305 13.0284V9.36947C44.5305 7.98884 43.6499 7.05947 42.2327 7.04727C41.8291 7.02118 41.4258 7.10382 41.065 7.28659C40.7042 7.46936 40.399 7.74556 40.1813 8.08641C39.9829 7.75568 39.6989 7.48459 39.3593 7.30171C39.0198 7.11883 38.6371 7.03093 38.2518 7.04727C37.9163 7.03107 37.5823 7.10264 37.2828 7.25493C36.9834 7.40721 36.7288 7.63495 36.5443 7.91566V7.18387H35.2734V13.0284H36.5565V9.79147C36.5565 8.77673 37.1175 8.24008 37.9859 8.24008C38.8543 8.24008 39.2568 8.78892 39.2568 9.77927V13.0284H40.5325V9.79147C40.5325 8.77673 41.118 8.24008 41.962 8.24008C42.8059 8.24008 43.245 8.78892 43.245 9.77927V13.0284H44.5305ZM63.5155 7.18875H61.4396V5.41783H60.1566V7.18875H58.9711V8.34985H60.1566V11.0111C60.1566 12.3673 60.681 13.1748 62.1836 13.1748C62.7448 13.1766 63.2952 13.0202 63.7716 12.7235L63.4057 11.6356C63.0647 11.8387 62.6778 11.952 62.2812 11.9649C61.647 11.9649 61.4372 11.5746 61.4372 10.9892V8.34985H63.513L63.5155 7.18875ZM74.3532 7.0424C74.0433 7.03336 73.7368 7.10814 73.4659 7.25883C73.195 7.40953 72.9697 7.63055 72.814 7.89858V7.18875H71.5553V13.0284H72.8262V9.75488C72.8262 8.77916 73.2409 8.25228 74.0727 8.25228C74.3448 8.24834 74.615 8.29808 74.8679 8.39864L75.2582 7.20095C74.9677 7.09707 74.6617 7.04345 74.3532 7.0424ZM57.9685 7.65222C57.249 7.22474 56.4218 7.01306 55.5853 7.0424C54.1071 7.0424 53.1461 7.75223 53.1461 8.91089C53.1461 9.86465 53.8535 10.4501 55.1609 10.633L55.7585 10.7184C56.4537 10.816 56.7855 10.9989 56.7855 11.3282C56.7855 11.7795 56.322 12.038 55.4536 12.038C54.753 12.0603 54.0654 11.8454 53.5022 11.4282L52.9241 12.4161C53.6642 12.9336 54.5509 13.1995 55.4536 13.1748C57.1392 13.1748 58.1173 12.3795 58.1173 11.2697C58.1173 10.2427 57.3465 9.70609 56.0781 9.52315L55.4805 9.43777C54.9316 9.36459 54.4901 9.25482 54.4901 8.86454C54.4901 8.43767 54.9048 8.18154 55.6024 8.18154C56.2416 8.19099 56.8679 8.36308 57.4221 8.68159L57.9685 7.65222ZM92.0014 7.0424C91.6915 7.03336 91.385 7.10814 91.1141 7.25883C90.8432 7.40953 90.618 7.63055 90.4622 7.89858V7.18875H89.2035V13.0284H90.4744V9.75488C90.4744 8.77916 90.8891 8.25228 91.7209 8.25228C91.993 8.24834 92.2632 8.29808 92.5161 8.39864L92.9064 7.20095C92.6159 7.09707 92.3099 7.04345 92.0014 7.0424ZM75.6362 10.1086C75.6362 11.8795 76.8705 13.1748 78.7512 13.1748C79.5138 13.2125 80.263 12.9636 80.8514 12.4771L80.2416 11.4502C79.8023 11.7847 79.2668 11.9687 78.7146 11.9746C77.6999 11.9746 76.9559 11.2282 76.9559 10.1061C76.9559 8.98406 77.7023 8.24984 78.7146 8.23764C79.2668 8.24361 79.8023 8.42753 80.2416 8.76209L80.8514 7.73515C80.263 7.24863 79.5138 6.99979 78.7512 7.03752C76.8705 7.03752 75.6362 8.33278 75.6362 10.1037V10.1086ZM87.5351 10.1086V7.18143H86.2642V7.89127C86.0475 7.61167 85.767 7.38803 85.4462 7.23907C85.1254 7.09011 84.7735 7.02016 84.4201 7.03508C82.7833 7.03508 81.493 8.31814 81.493 10.1013C81.493 11.8844 82.776 13.1674 84.4201 13.1674C84.7735 13.1823 85.1254 13.1124 85.4462 12.9634C85.767 12.8145 86.0475 12.5908 86.2642 12.3112V13.0186H87.5351V10.1086ZM82.8077 10.1086C82.8077 9.08164 83.4785 8.24008 84.5787 8.24008C85.63 8.24008 86.3374 9.04749 86.3374 10.1086C86.3374 11.1697 85.63 11.9771 84.5787 11.9771C83.4785 11.9771 82.8077 11.1331 82.8077 10.1086ZM67.4744 7.0424C65.7669 7.0424 64.5668 8.28887 64.5668 10.1086C64.5668 11.9649 65.8133 13.1748 67.5598 13.1748C68.4318 13.2053 69.2846 12.9135 69.9552 12.3552L69.3331 11.4136C68.848 11.8018 68.2469 12.0164 67.6256 12.0234C66.806 12.0234 66.0621 11.6453 65.8791 10.594H70.2162C70.2284 10.4354 70.2406 10.2769 70.2406 10.1061C70.2406 8.28643 69.1039 7.03996 67.4671 7.03996L67.4744 7.0424ZM67.45 8.1791C68.2696 8.1791 68.7941 8.69135 68.9282 9.59632H65.9011C66.0352 8.75233 66.5475 8.1791 67.4524 8.1791H67.45ZM99.3192 10.1086V4.84216H98.0484V7.89614C97.8317 7.61654 97.5512 7.39291 97.2304 7.24395C96.9095 7.09499 96.5577 7.02504 96.2043 7.03996C94.5675 7.03996 93.2771 8.32302 93.2771 10.1061C93.2771 11.8892 94.5602 13.1723 96.2043 13.1723C96.5577 13.1872 96.9095 13.1173 97.2304 12.9683C97.5512 12.8194 97.8317 12.5957 98.0484 12.3161V13.0235H99.3192V10.1086ZM100.805 12.4893C100.855 12.4891 100.905 12.4991 100.951 12.5186C100.996 12.5376 101.036 12.5649 101.071 12.5991C101.105 12.6326 101.132 12.6723 101.151 12.7162C101.171 12.7616 101.181 12.8106 101.181 12.8601C101.181 12.9096 101.171 12.9586 101.151 13.004C101.132 13.0478 101.105 13.0875 101.071 13.1211C101.036 13.1551 100.996 13.1824 100.951 13.2016C100.905 13.2213 100.855 13.2313 100.805 13.2309C100.73 13.2318 100.657 13.2108 100.595 13.1704C100.532 13.1301 100.483 13.0722 100.454 13.004C100.434 12.9585 100.424 12.9096 100.424 12.8601C100.424 12.8106 100.434 12.7617 100.454 12.7162C100.492 12.6266 100.564 12.5556 100.654 12.5186C100.703 12.498 100.756 12.4881 100.81 12.4893H100.805ZM100.805 13.1479C100.843 13.1485 100.882 13.141 100.917 13.126C100.951 13.1114 100.981 13.0907 101.007 13.065C101.061 13.0106 101.092 12.9369 101.092 12.8601C101.092 12.7833 101.061 12.7096 101.007 12.6552C100.981 12.6293 100.951 12.6086 100.917 12.5942C100.881 12.5793 100.843 12.5718 100.805 12.5722C100.765 12.5717 100.726 12.5792 100.69 12.5942C100.647 12.6128 100.608 12.6417 100.579 12.6785C100.549 12.7152 100.528 12.7587 100.519 12.8051C100.51 12.8515 100.513 12.8994 100.526 12.9447C100.54 12.99 100.564 13.0313 100.597 13.065C100.624 13.0911 100.656 13.1118 100.69 13.126C100.728 13.1417 100.769 13.1492 100.81 13.1479H100.805ZM100.827 12.6845C100.863 12.6819 100.9 12.6923 100.929 12.7137C100.941 12.7233 100.951 12.7356 100.957 12.7496C100.963 12.7636 100.966 12.7789 100.966 12.7942C100.966 12.8074 100.964 12.8206 100.959 12.8328C100.954 12.845 100.946 12.8559 100.936 12.865C100.914 12.8849 100.886 12.8969 100.856 12.8991L100.968 13.0284H100.88L100.775 12.8991H100.741V13.0284H100.668V12.6869L100.827 12.6845ZM100.741 12.7479V12.8406H100.827C100.842 12.845 100.858 12.845 100.873 12.8406C100.879 12.8368 100.883 12.8317 100.886 12.8257C100.889 12.8197 100.89 12.8131 100.89 12.8064C100.89 12.7997 100.889 12.7931 100.886 12.7871C100.883 12.7811 100.879 12.776 100.873 12.7723C100.858 12.7679 100.842 12.7679 100.827 12.7723L100.741 12.7479ZM94.5968 10.1086C94.5968 9.08164 95.2676 8.24008 96.3677 8.24008C97.419 8.24008 98.1264 9.04749 98.1264 10.1086C98.1264 11.1697 97.419 11.9771 96.3677 11.9771C95.2676 11.9771 94.5968 11.1331 94.5968 10.1086ZM51.6898 10.1086V7.18143H50.4189V7.89127C50.2022 7.61404 49.9226 7.39244 49.6032 7.24482C49.2837 7.0972 48.9337 7.02781 48.5822 7.0424C46.9454 7.0424 45.655 8.32546 45.655 10.1086C45.655 11.8917 46.9381 13.1748 48.5822 13.1748C48.9356 13.1897 49.2874 13.1197 49.6083 12.9708C49.9291 12.8218 50.2096 12.5982 50.4263 12.3186V13.026H51.6971L51.6898 10.1086ZM46.9625 10.1086C46.9625 9.08164 47.6333 8.24008 48.7334 8.24008C49.7847 8.24008 50.4921 9.04749 50.4921 10.1086C50.4921 11.1697 49.7847 11.9771 48.7334 11.9771C47.6333 11.9771 46.9625 11.1355 46.9625 10.1086Z" fill="white"/>
<path d="M19.0587 3.17419H11.375V16.983H19.0587V3.17419Z" fill="#F4F5F9"/>
<path d="M11.8613 10.0794C11.8603 8.74974 12.1617 7.43725 12.7428 6.24128C13.3239 5.04531 14.1694 3.99718 15.2153 3.17623C13.9199 2.15812 12.3641 1.52503 10.7258 1.34929C9.08757 1.17355 7.43292 1.46227 5.95098 2.18244C4.46904 2.90262 3.21961 4.02519 2.34549 5.42186C1.47136 6.81853 1.00781 8.43296 1.00781 10.0806C1.00781 11.7283 1.47136 13.3427 2.34549 14.7394C3.21961 16.136 4.46904 17.2586 5.95098 17.9788C7.43292 18.699 9.08757 18.9877 10.7258 18.8119C12.3641 18.6362 13.9199 18.0031 15.2153 16.985C14.1691 16.1638 13.3233 15.1153 12.7423 13.9189C12.1612 12.7224 11.8599 11.4095 11.8613 10.0794Z" fill="white"/>
<path d="M29.4237 10.0789C29.4236 11.7267 28.96 13.3413 28.0857 14.738C27.2114 16.1347 25.9618 17.2572 24.4797 17.9773C22.9975 18.6974 21.3427 18.9859 19.7044 18.8099C18.066 18.6339 16.5102 18.0005 15.2148 16.9821C16.2604 16.1604 17.1057 15.112 17.6869 13.916C18.2681 12.7199 18.5701 11.4075 18.5701 10.0777C18.5701 8.74794 18.2681 7.43551 17.6869 6.23947C17.1057 5.04344 16.2604 3.99502 15.2148 3.17334C16.5104 2.15479 18.0664 1.52135 19.705 1.34546C21.3435 1.16956 22.9986 1.4583 24.4808 2.17867C25.963 2.89903 27.2126 4.02195 28.0867 5.41903C28.9608 6.8161 29.4241 8.43095 29.4237 10.0789Z" fill="#C9CFE3"/>
<path d="M28.5809 15.5157V15.2327H28.6956V15.1766H28.4102V15.2352H28.5248V15.5181L28.5809 15.5157ZM29.1444 15.5157V15.1742H29.0688L28.9663 15.4181L28.8639 15.1742H28.7736V15.5157H28.8248V15.2596L28.92 15.4815H28.9858L29.081 15.2596V15.5181L29.1444 15.5157Z" fill="white"/>
</g>
<defs>
<clipPath id="clip0">
<rect width="102.141" height="19.6027" fill="white" transform="translate(0 0.787354)"/>
</clipPath>
</defs>
</svg>
