<svg width="48" height="25" viewBox="0 0 48 25" fill="none" xmlns="http://www.w3.org/2000/svg">
<g clip-path="url(#clip0)">
<path fill-rule="evenodd" clip-rule="evenodd" d="M13.7356 5.42387H17.3379C18.4836 5.42387 19.4211 6.36123 19.4211 7.50713V13.4965C19.4211 14.6422 18.4836 15.5797 17.3379 15.5797H13.7356C12.5899 15.5797 11.6523 14.6422 11.6523 13.4965V7.50713C11.6523 6.36123 12.5899 5.42387 13.7356 5.42387Z" fill="#182047"/>
<path fill-rule="evenodd" clip-rule="evenodd" d="M13.7365 5.42471H17.3387C18.4844 5.42471 19.4219 6.36231 19.4219 7.50802V13.4974C19.4219 14.6431 18.4844 15.5806 17.3387 15.5806H13.7365C12.5907 15.5806 11.6531 14.6431 11.6531 13.4974V7.50802C11.6531 6.36231 12.5907 5.42471 13.7365 5.42471ZM18.6407 24.5211H12.4344C11.5273 24.5211 10.7852 23.7788 10.7852 22.8718V4.68698C10.7852 3.77997 11.5273 3.03777 12.4344 3.03777H18.6407C18.7143 3.03777 18.7866 3.04268 18.8578 3.0522V1.71398C18.8578 1.32015 19.18 0.9979 19.5738 0.9979C19.9677 0.9979 20.2899 1.32015 20.2899 1.71398V3.9709C20.2899 4.07091 20.269 4.16644 20.2315 4.25317C20.2696 4.39157 20.2899 4.53704 20.2899 4.68698V22.8718C20.2899 23.7788 19.5479 24.5211 18.6407 24.5211Z" fill="white"/>
<path fill-rule="evenodd" clip-rule="evenodd" d="M23.8774 6.79603C24.855 6.65586 25.6056 6.92762 25.6567 8.46703C25.6244 9.8414 24.8939 10.1892 23.8774 10.1163V6.79603ZM21.75 5.8079L25.7106 5.79259C27.1545 5.97601 27.8218 7.05669 27.7612 8.62907C27.6511 10.2138 26.7527 10.9884 25.2523 11.1242L23.8146 11.0956L23.855 15.443H21.75V5.8079Z" fill="white"/>
<path fill-rule="evenodd" clip-rule="evenodd" d="M31.4356 5.68286L33.9432 5.6714L33.9245 6.74759L31.9602 6.73879C30.8269 6.94929 31.0807 8.15825 31.0257 9.03185L33.6682 8.98238L33.6773 10.3033L31.1173 10.2761L31.1048 13.475C31.2055 14.3042 31.6419 14.7214 32.3788 14.7697L33.7854 14.7542L34.2142 14.7635L34.2009 15.7622L33.7616 15.7789L31.0884 15.7505C30.1672 15.7193 29.4234 15.2625 29.0812 13.8423L29.0156 7.63632C29.0532 6.36399 29.8935 5.74005 31.4356 5.68286Z" fill="white"/>
<path fill-rule="evenodd" clip-rule="evenodd" d="M34.8672 8.40895C34.7091 6.33009 35.8675 5.86052 37.276 5.69639C38.9248 5.59873 39.9602 6.28628 40.1621 8.04046L38.2158 8.03518C38.0926 7.15034 37.4043 6.81029 36.7744 7.23137C35.8765 8.32976 38.6784 10.2628 39.5183 10.9796C40.9704 12.1281 40.7245 15.3113 38.4879 15.9015L37.1242 15.9499C35.7388 15.9826 34.9143 15.1076 34.6758 13.4855L36.6367 13.4508C36.7435 14.1436 37.039 14.5742 37.6666 14.5435C38.643 14.3581 38.9116 13.4985 38.2171 12.4015C36.7635 11.167 35.042 10.0089 34.8672 8.40895Z" fill="white"/>
<path fill-rule="evenodd" clip-rule="evenodd" d="M0.390625 5.37396H2.4518L2.47347 6.01412C3.71901 5.47587 4.65827 5.09554 5.64215 5.98158C7.40131 5.15084 8.73163 5.24548 9.39128 6.78729L9.48313 15.443H7.40469V7.18668C7.25081 6.4799 6.69119 6.35905 6.01587 6.40553V15.443H3.88921V7.18668C3.73535 6.4799 3.17571 6.35905 2.50043 6.40553V15.443H0.390625V5.37396Z" fill="white"/>
<path fill-rule="evenodd" clip-rule="evenodd" d="M43.454 7.55488C43.5246 6.98735 43.709 6.75885 44.3327 6.69769C44.9654 6.71403 45.1904 7.07905 45.2333 7.64163V9.18238H43.454V7.55488ZM41.3164 15.6924H43.454V10.3759H45.2333V15.6924H47.3056V8.09737C47.2642 6.5538 46.0778 5.58651 44.3978 5.58009C42.4812 5.5632 41.3884 6.47215 41.3164 8.01054V15.6924Z" fill="white"/>
<path fill-rule="evenodd" clip-rule="evenodd" d="M13.3111 9.48063C13.6675 10.3143 14.1526 10.6975 14.7404 10.7209C13.8237 11.4056 12.8321 11.8218 11.7984 12.0875C11.1493 12.0459 10.5284 11.8807 9.92578 11.7157C11.4485 11.4151 12.584 10.6781 13.3111 9.48063Z" fill="white"/>
<path fill-rule="evenodd" clip-rule="evenodd" d="M17.3049 7.32503L21.6016 9.49509C19.4133 12.3742 15.7232 12.4499 11.793 12.0774C14.4205 11.43 16.2397 9.82432 17.3049 7.32503Z" fill="white"/>
</g>
<defs>
<clipPath id="clip0">
<rect width="46.9156" height="23.5233" fill="white" transform="translate(0.390625 0.998291)"/>
</clipPath>
</defs>
</svg>
