<svg width="24" height="25" viewBox="0 0 24 25" fill="none" xmlns="http://www.w3.org/2000/svg">
<g clip-path="url(#clip0)">
<path d="M23.6483 0.998291H0.125V24.5216H23.6483V0.998291Z" fill="white"/>
<path d="M22.5055 2.14282H1.27344V23.3749H22.5055V2.14282Z" fill="white"/>
<path d="M21.8394 12.6952C21.8394 14.9617 17.3841 16.7989 11.889 16.7989C6.39281 16.7989 1.9375 14.9617 1.9375 12.6952C1.9375 10.4288 6.39281 8.59277 11.889 8.59277C17.3841 8.59277 21.8394 10.4288 21.8394 12.6952Z" fill="#111839"/>
<path d="M5.51562 14.7191L6.54477 10.6155H8.18905V13.0054L9.26994 10.6155H10.9671L9.93918 14.7191H8.85828L9.47459 12.0704L8.18905 14.7191H7.31633V12.0704L6.64592 14.7191H5.51562Z" fill="white"/>
<path d="M11.3008 14.773L11.4549 14.2014H12.6381L12.4828 14.773H11.3008Z" fill="white"/>
<path d="M13.9492 14.7191L14.9772 10.6155H16.1604L16.6756 12.7984L17.2401 10.6155H18.3198L17.2919 14.7191H16.1604L15.5947 12.4856L15.0289 14.7191H13.9492Z" fill="white"/>
<path d="M11.3005 10.6165L11.043 11.6562H12.1239L11.5417 13.9109H12.7237L13.3071 11.6562H14.3868L14.6432 10.6165H11.3005Z" fill="white"/>
</g>
<defs>
<clipPath id="clip0">
<rect width="23.5233" height="23.5233" fill="white" transform="translate(0.125 0.998291)"/>
</clipPath>
</defs>
</svg>
