<svg width="71" height="18" viewBox="0 0 71 18" fill="none" xmlns="http://www.w3.org/2000/svg">
<g clip-path="url(#clip0)">
<path fill-rule="evenodd" clip-rule="evenodd" d="M6.15919 4.29065H10.9814C13.5706 4.29065 14.5452 5.60139 14.3946 7.52706C14.1456 10.7062 12.2237 12.4651 9.67442 12.4651H8.38733C8.03755 12.4651 7.80229 12.6966 7.70768 13.324L7.16123 16.9711C7.12513 17.2076 7.00066 17.3446 6.81394 17.3632H3.78416C3.49911 17.3632 3.39829 17.1454 3.47297 16.6736L5.32021 4.9815C5.39241 4.51347 5.64883 4.29065 6.15919 4.29065Z" fill="#C9CFE3"/>
<path fill-rule="evenodd" clip-rule="evenodd" d="M27.0917 4.07251C28.7186 4.07251 30.2198 4.95505 30.0144 7.15457C29.7654 9.76859 28.3651 11.215 26.1556 11.2212H24.225C23.9474 11.2212 23.8129 11.4478 23.7408 11.9121L23.3673 14.2859C23.3113 14.6444 23.1271 14.8211 22.8557 14.8211H21.0595C20.7732 14.8211 20.6736 14.6381 20.7371 14.2286L22.2196 4.71481C22.2931 4.24678 22.4686 4.07251 22.7885 4.07251H27.0879H27.0917ZM24.1665 9.16611H25.6291C26.544 9.13126 27.1514 8.49767 27.2124 7.35497C27.2498 6.64919 26.773 6.14381 26.0149 6.14754L24.6382 6.15377L24.1665 9.16611ZM34.8976 14.0929C35.062 13.9435 35.2288 13.8664 35.2051 14.0506L35.1466 14.4912C35.1167 14.7215 35.2076 14.8435 35.4217 14.8435H37.0175C37.2864 14.8435 37.4171 14.7352 37.483 14.3195L38.4664 8.14789C38.5162 7.83794 38.4403 7.68608 38.205 7.68608H36.4499C36.2918 7.68608 36.2146 7.77446 36.1735 8.01595L36.1088 8.3956C36.0752 8.59352 35.9843 8.62837 35.8997 8.42921C35.6022 7.72467 34.8429 7.4085 33.7836 7.43339C31.3227 7.48443 29.6634 9.35283 29.4854 11.7478C29.3484 13.6 30.6754 15.0551 32.4255 15.0551C33.6952 15.0551 34.2628 14.6817 34.9026 14.0967L34.8976 14.0929ZM33.5608 13.1432C32.5015 13.1432 31.7633 12.298 31.9164 11.2623C32.0695 10.2267 33.0604 9.38146 34.1197 9.38146C35.179 9.38146 35.9171 10.2267 35.764 11.2623C35.6109 12.298 34.6213 13.1432 33.5608 13.1432ZM41.5895 7.66616H39.9713C39.6377 7.66616 39.5021 7.91512 39.6079 8.22133L41.6169 14.1041L39.6465 16.9036C39.4809 17.1376 39.6091 17.3505 39.8419 17.3505H41.6605C41.7665 17.3627 41.8738 17.3443 41.9695 17.2973C42.0653 17.2502 42.1456 17.1767 42.2007 17.0854L48.3798 8.22258C48.5702 7.94997 48.4806 7.66368 48.1682 7.66368H46.4466C46.1516 7.66368 46.0334 7.78069 45.8641 8.02591L43.2874 11.7602L42.136 8.01719C42.0688 7.79064 41.9007 7.66616 41.5908 7.66616H41.5895Z" fill="white"/>
<path fill-rule="evenodd" clip-rule="evenodd" d="M54.8092 4.075C56.4361 4.075 57.9373 4.95755 57.7319 7.15706C57.483 9.77108 56.0826 11.2175 53.8731 11.2237H51.9437C51.6661 11.2237 51.5317 11.4503 51.4595 11.9146L51.0861 14.2884C51.0301 14.6468 50.8458 14.8236 50.5745 14.8236H48.7783C48.492 14.8236 48.3924 14.6406 48.4559 14.2311L49.9409 4.71481C50.0143 4.24678 50.1898 4.07251 50.5097 4.07251H54.8092V4.075ZM51.884 9.16861H53.3466C54.2615 9.13375 54.8689 8.50016 54.9299 7.35746C54.9673 6.65168 54.4905 6.1463 53.7325 6.15003L52.3557 6.15626L51.884 9.16861ZM62.6151 14.0954C62.7794 13.946 62.9462 13.8689 62.9226 14.0531L62.8641 14.4937C62.8342 14.724 62.9251 14.846 63.1392 14.846H64.735C65.0039 14.846 65.1346 14.7377 65.2005 14.322L66.1839 8.15038C66.2337 7.84044 66.1578 7.68857 65.9225 7.68857H64.1699C64.0118 7.68857 63.9346 7.77695 63.8935 8.01844L63.8288 8.39809C63.7952 8.59601 63.7043 8.63087 63.6197 8.4317C63.3222 7.72716 62.5629 7.41099 61.5036 7.43589C59.0426 7.48692 57.3834 9.35532 57.2054 11.7503C57.0684 13.6025 58.3954 15.0576 60.1455 15.0576C61.4152 15.0576 61.9828 14.6842 62.6226 14.0991L62.6151 14.0954ZM61.2795 13.1457C60.2202 13.1457 59.482 12.3005 59.6352 11.2648C59.7883 10.2292 60.7791 9.38395 61.8384 9.38395C62.8977 9.38395 63.6358 10.2292 63.4827 11.2648C63.3296 12.3005 62.3388 13.1457 61.2795 13.1457ZM68.6398 14.856H66.7976C66.7655 14.8574 66.7336 14.8517 66.704 14.8394C66.6744 14.827 66.6478 14.8083 66.6263 14.7845C66.6048 14.7607 66.5888 14.7325 66.5795 14.7018C66.5701 14.6711 66.5676 14.6388 66.5723 14.607L68.1905 4.35508C68.2059 4.28511 68.2446 4.22243 68.3002 4.17723C68.3558 4.13203 68.425 4.10696 68.4967 4.10612H70.3389C70.371 4.10469 70.4029 4.11035 70.4326 4.1227C70.4622 4.13505 70.4887 4.15379 70.5102 4.17757C70.5317 4.20135 70.5477 4.22959 70.5571 4.26028C70.5664 4.29096 70.5689 4.32333 70.5642 4.35508L68.946 14.607C68.9311 14.6774 68.8926 14.7407 68.837 14.7864C68.7813 14.8321 68.7118 14.8575 68.6398 14.8585V14.856Z" fill="white"/>
<path fill-rule="evenodd" clip-rule="evenodd" d="M3.14159 0.263916H7.96882C9.32811 0.263916 10.9413 0.307483 12.0193 1.25973C12.74 1.89581 13.1184 2.90781 13.0313 3.99823C12.735 7.684 10.5306 9.74907 7.57298 9.74907H5.19298C4.78718 9.74907 4.51956 10.0179 4.40504 10.7449L3.74033 14.9771C3.69676 15.251 3.57851 15.4128 3.3669 15.4327H0.38816C0.0582951 15.4327 -0.0587145 15.1838 0.0271747 14.6336L2.16818 1.06804C2.25407 0.522827 2.55406 0.263916 3.14159 0.263916Z" fill="white"/>
<path fill-rule="evenodd" clip-rule="evenodd" d="M4.47656 10.3165L5.31927 4.98018C5.39271 4.51215 5.64914 4.28809 6.15949 4.28809H10.9817C11.7796 4.28809 12.4257 4.41256 12.9311 4.64285C12.4468 7.92406 10.3245 9.74641 7.54617 9.74641H5.1699C4.85124 9.74765 4.61722 9.90699 4.47656 10.3165Z" fill="#F4F5F9"/>
</g>
<defs>
<clipPath id="clip0">
<rect width="70.5698" height="17.0969" fill="white" transform="translate(0 0.263916)"/>
</clipPath>
</defs>
</svg>
