<svg width="39" height="18" viewBox="0 0 39 18" fill="none" xmlns="http://www.w3.org/2000/svg">
<g clip-path="url(#clip0)">
<path fill-rule="evenodd" clip-rule="evenodd" d="M38.7438 9.4317C38.7438 6.75686 37.4482 4.64624 34.9718 4.64624C32.4851 4.64624 30.9805 6.75686 30.9805 9.4108C30.9805 12.5558 32.7567 14.144 35.3062 14.144C36.5496 14.144 37.49 13.8619 38.2005 13.4649V11.3751C37.49 11.7304 36.675 11.9498 35.6405 11.9498C34.627 11.9498 33.7285 11.5946 33.6135 10.3616H38.7229C38.7229 10.2258 38.7438 9.68247 38.7438 9.4317ZM33.5822 8.43908C33.5822 7.25839 34.3031 6.76731 34.9614 6.76731C35.5988 6.76731 36.2779 7.25839 36.2779 8.43908H33.5822Z" fill="white"/>
<path fill-rule="evenodd" clip-rule="evenodd" d="M26.9473 4.64624C25.9233 4.64624 25.2651 5.12688 24.8994 5.46123L24.7635 4.81342H22.4648V16.9965L25.077 16.4427L25.0874 13.4858C25.4636 13.7574 26.0174 14.144 26.9368 14.144C28.8071 14.144 30.5103 12.6394 30.5103 9.32722C30.4998 6.29712 28.7758 4.64624 26.9473 4.64624ZM26.3204 11.8453C25.7039 11.8453 25.3382 11.6259 25.0874 11.3543L25.077 7.47781C25.3487 7.1748 25.7248 6.96583 26.3204 6.96583C27.2712 6.96583 27.9295 8.03159 27.9295 9.40036C27.9295 10.8005 27.2817 11.8453 26.3204 11.8453Z" fill="white"/>
<path fill-rule="evenodd" clip-rule="evenodd" d="M18.8711 4.03124L21.4937 3.46701V1.34595L18.8711 1.89972V4.03124Z" fill="white"/>
<path d="M21.4898 4.82642H18.8672V13.9689H21.4898V4.82642Z" fill="white"/>
<path fill-rule="evenodd" clip-rule="evenodd" d="M16.0608 5.59897L15.8936 4.82578H13.6367V13.9683H16.2489V7.77228C16.8653 6.96774 17.9102 7.11402 18.2341 7.22896V4.82578C17.8998 4.70039 16.6773 4.47052 16.0608 5.59897Z" fill="white"/>
<path fill-rule="evenodd" clip-rule="evenodd" d="M10.8334 2.55688L8.28389 3.10021L8.27344 11.4695C8.27344 13.0159 9.43324 14.1548 10.9796 14.1548C11.8364 14.1548 12.4633 13.9981 12.8081 13.81V11.689C12.4738 11.8248 10.8229 12.3054 10.8229 10.759V7.04978H12.8081V4.82423H10.8229L10.8334 2.55688Z" fill="white"/>
<path fill-rule="evenodd" clip-rule="evenodd" d="M3.77241 7.47781C3.77241 7.07032 4.10676 6.91359 4.66054 6.91359C5.45463 6.91359 6.4577 7.1539 7.25179 7.5823V5.12688C6.38456 4.78207 5.52777 4.64624 4.66054 4.64624C2.53947 4.64624 1.12891 5.75379 1.12891 7.60319C1.12891 10.487 5.09938 10.0273 5.09938 11.2707C5.09938 11.7513 4.68143 11.908 4.09631 11.908C3.22908 11.908 2.12152 11.5528 1.24384 11.0721V13.5589C2.21556 13.9768 3.19773 14.1545 4.09631 14.1545C6.26962 14.1545 7.76377 13.0783 7.76377 11.208C7.75333 8.09428 3.77241 8.64805 3.77241 7.47781Z" fill="white"/>
</g>
<defs>
<clipPath id="clip0">
<rect width="38.4489" height="16.989" fill="white" transform="translate(0.550781 0.263916)"/>
</clipPath>
</defs>
</svg>
