<svg width="33" height="25" viewBox="0 0 33 25" fill="none" xmlns="http://www.w3.org/2000/svg">
<g clip-path="url(#clip0)">
<path d="M25.6965 1.66336C27.058 0.988665 28.6934 0.965232 30.1018 1.51145C30.9146 1.83465 31.6895 2.33562 32.1937 3.06364C32.6074 3.69066 32.525 4.46797 32.5129 5.18063C32.0911 4.73219 31.6693 4.27243 31.1482 3.93468C30.1131 3.2204 28.8106 2.94809 27.5687 3.0895C26.052 3.20262 24.5677 3.93629 23.6579 5.17175C23.6708 4.56654 23.5585 3.92498 23.8179 3.35453C24.1629 2.54983 24.9386 2.03674 25.6965 1.66336Z" fill="white"/>
<path d="M8.69988 2.87756C9.42305 2.69656 10.2359 3.15713 10.4266 3.88353C10.7046 4.74649 9.96926 5.72823 9.06671 5.71853C8.28294 5.76539 7.58967 5.0495 7.60179 4.27542C7.58967 3.62658 8.07124 3.02462 8.69988 2.87756Z" fill="white"/>
<path d="M1.57887 4.30142C1.89884 4.13659 2.26972 4.18507 2.61636 4.18103C2.61312 4.92844 2.61151 5.67585 2.61636 6.42327C3.75646 6.42003 4.89576 6.42165 6.03587 6.42246C6.01809 6.83616 6.06576 7.2539 6.00274 7.66437C5.86861 8.24614 5.26017 8.59117 4.69295 8.60005C4.00048 8.60975 3.30801 8.60652 2.61555 8.60086C2.61151 9.93489 2.61474 11.2689 2.61474 12.603C2.61393 13.1233 2.75291 13.7083 3.20944 14.0162C3.67081 14.3232 4.25501 14.2699 4.78102 14.2368C5.21897 14.2109 5.63913 14.076 6.03344 13.8893C6.00274 14.4735 6.14414 15.1134 5.81447 15.6395C5.49854 16.1574 4.8699 16.3602 4.29702 16.42C3.50921 16.483 2.6915 16.4022 1.96348 16.0798C1.25324 15.776 0.695709 15.1538 0.436337 14.4299C0.221405 13.8465 0.155956 13.2195 0.164844 12.6013C0.164844 10.6613 0.165652 8.72126 0.164844 6.78122C0.172924 6.28752 0.228677 5.76554 0.514714 5.34619C0.794286 4.9341 1.12719 4.53171 1.57887 4.30142Z" fill="white"/>
<path d="M27.7415 6.21484C28.7515 6.15424 29.7938 6.38129 30.6406 6.94771C31.8235 7.7339 32.5403 9.0946 32.6994 10.4884C32.8287 11.761 32.655 13.0959 32.0264 14.2247C31.4632 15.2573 30.4806 16.0589 29.3381 16.357C27.9491 16.7287 26.3598 16.5978 25.168 15.7429C24.0577 14.9729 23.3992 13.6768 23.2223 12.3574C23.0728 11.0912 23.2489 9.76363 23.8444 8.62676C24.246 7.85591 24.8666 7.19253 25.6374 6.78368C26.2806 6.43058 27.0126 6.25928 27.7415 6.21484ZM27.2874 8.47081C26.7953 8.5912 26.38 8.94269 26.136 9.38063C25.7433 10.0602 25.6956 10.869 25.7328 11.635C25.7691 12.3582 25.9283 13.1209 26.4091 13.6865C26.9294 14.2901 27.8061 14.4493 28.56 14.3055C29.1482 14.1859 29.6306 13.7423 29.8754 13.205C30.197 12.5157 30.2293 11.7311 30.1736 10.9845C30.1081 10.2525 29.9207 9.46871 29.3664 8.94673C28.8258 8.4216 27.9992 8.31971 27.2874 8.47081Z" fill="white"/>
<path d="M16.6501 6.61968C17.6779 6.29648 18.7881 6.16881 19.853 6.36435C20.6029 6.5106 21.3745 6.90491 21.7228 7.61839C21.9943 8.12501 21.8852 8.71648 21.9054 9.26592C21.8052 9.26673 21.705 9.26754 21.6048 9.26835C20.7718 8.64941 19.7052 8.44094 18.6863 8.42963C17.7272 8.41266 16.7317 8.79324 16.1273 9.55681C15.6457 10.1257 15.4526 10.8949 15.4922 11.6294C15.5173 12.4438 15.7241 13.3181 16.3293 13.9039C16.9765 14.5649 17.9599 14.7434 18.8495 14.7055C19.1856 14.6845 19.6519 14.5923 19.6979 14.1867C19.7407 13.2979 19.7278 12.3978 19.525 11.5267C19.9985 11.5397 20.4728 11.5122 20.9455 11.5421C21.5515 11.5995 22.1308 12.1198 22.0896 12.7598C22.05 13.6445 22.2238 14.5867 21.8399 15.4189C21.4957 16.1704 20.6901 16.5696 19.9161 16.7255C18.4293 17.014 16.8157 16.8806 15.4833 16.1219C14.3448 15.4997 13.4657 14.4138 13.1417 13.1533C12.7789 11.757 12.9316 10.2024 13.6693 8.9508C14.3157 7.82839 15.4251 7.01157 16.6501 6.61968Z" fill="white"/>
<path d="M7.82125 6.63892C8.39494 6.65912 9.01792 6.57023 9.53343 6.88132C10.0384 7.16251 10.2687 7.76125 10.2695 8.31635C10.2784 9.63584 10.2703 10.9553 10.2744 12.2756C10.2792 12.7039 10.2461 13.137 10.3221 13.5612C10.3657 13.8278 10.5119 14.0953 10.7632 14.2173C11.2165 14.4581 11.749 14.4015 12.2443 14.4055C12.2379 14.9219 12.2993 15.4883 12.0092 15.9448C11.7789 16.3036 11.3232 16.4054 10.9248 16.4207C10.1144 16.4506 9.23527 16.2729 8.63896 15.6846C8.01436 15.0786 7.81963 14.1696 7.82125 13.3277C7.82044 11.0983 7.81963 8.86822 7.82125 6.63892Z" fill="white"/>
<path d="M15.5965 18.26C16.3285 19.1933 17.1535 20.0772 18.1716 20.7018C19.3998 21.4791 20.8688 21.8452 22.3175 21.7934C24.2341 21.766 26.1572 21.0889 27.5987 19.8098C28.1304 19.3767 28.5312 18.8167 28.9457 18.277C28.9554 19.0688 29.0345 19.889 28.7534 20.6477C28.4091 21.7684 27.5017 22.5966 26.5507 23.2236C25.2345 24.0866 23.6588 24.5884 22.0784 24.5205C20.0446 24.4462 18.0181 23.5832 16.6421 22.0698C16.2558 21.6496 15.9262 21.1664 15.7694 20.6121C15.5036 19.8575 15.5722 19.0446 15.5965 18.26Z" fill="white"/>
</g>
<defs>
<clipPath id="clip0">
<rect width="32.6924" height="23.5233" fill="white" transform="translate(0.0390625 0.998291)"/>
</clipPath>
</defs>
</svg>
