<svg width="50" height="18" viewBox="0 0 50 18" fill="none" xmlns="http://www.w3.org/2000/svg">
<g clip-path="url(#clip0)">
<path fill-rule="evenodd" clip-rule="evenodd" d="M17.2243 9.35311C17.2243 14.022 13.4394 17.8069 8.7705 17.8069C4.10139 17.8069 0.316406 14.022 0.316406 9.35311C0.316406 4.6842 4.10139 0.899328 8.7705 0.899328C13.4394 0.899328 17.2243 4.6842 17.2243 9.35311Z" fill="white"/>
<path fill-rule="evenodd" clip-rule="evenodd" d="M8.76999 12.9722C6.87905 8.68598 5.49256 4.6818 5.49256 4.6818H2.59375C2.59375 4.6818 4.3581 9.82118 7.63543 16.2483H9.90457C13.1819 9.82118 14.9461 4.6818 14.9461 4.6818H12.0473C12.0473 4.6818 10.6609 8.68598 8.76999 12.9722Z" fill="#111838"/>
<path fill-rule="evenodd" clip-rule="evenodd" d="M45.1777 8.91304C43.539 8.91304 43.4132 10.6777 43.4132 10.6777H46.942C46.942 10.6777 46.8161 8.91304 45.1777 8.91304ZM49.0848 12.4421H43.4132C43.4132 12.4421 43.539 14.3329 46.0601 14.3329C47.3203 14.3329 48.5807 13.9544 48.5807 13.9544L48.8329 15.971C48.8329 15.971 47.5725 16.4755 45.8078 16.4755C43.2871 16.4755 41.0184 15.2149 41.0184 11.6859C41.0184 8.91304 42.7831 7.14848 45.3038 7.14848C49.0848 7.14848 49.3368 10.9296 49.0848 12.4421ZM29.799 9.46397L30.1893 7.38292C30.1893 7.38292 27.1758 6.46851 24.7264 8.16309V16.4873H27.3277V9.72386C28.3681 8.94379 29.799 9.46397 29.799 9.46397ZM18.9563 8.91304C17.3179 8.91304 17.192 10.6777 17.192 10.6777H20.7209C20.7209 10.6777 20.595 8.91304 18.9563 8.91304ZM22.8634 12.4421H17.192C17.192 12.4421 17.3179 14.3329 19.8387 14.3329C21.0988 14.3329 22.3593 13.9544 22.3593 13.9544L22.6115 15.971C22.6115 15.971 21.351 16.4755 19.5864 16.4755C17.0657 16.4755 14.7969 15.2149 14.7969 11.6859C14.7969 8.91304 16.5615 7.14848 19.0823 7.14848C22.8634 7.14848 23.1153 10.9296 22.8634 12.4421ZM36.1471 13.3059C34.8263 10.1356 34.1661 7.15 34.1661 7.15L31.525 7.15032C31.525 7.15032 32.8457 12.249 35.0911 16.4739H37.2032C39.4487 12.249 40.7694 7.15106 40.7694 7.15106H38.1281C38.1281 7.15106 37.468 10.1356 36.1471 13.3059Z" fill="white"/>
</g>
<defs>
<clipPath id="clip0">
<rect width="49.0886" height="17.1067" fill="white" transform="translate(0.1875 0.787354)"/>
</clipPath>
</defs>
</svg>
