<svg width="54" height="18" viewBox="0 0 54 18" fill="none" xmlns="http://www.w3.org/2000/svg">
<g clip-path="url(#clip0)">
<path d="M23.5024 17.531H19.25L21.9097 1.08521H26.1619L23.5024 17.531Z" fill="white"/>
<path d="M38.9161 1.48849C38.0773 1.15574 36.747 0.78833 35.1021 0.78833C30.9027 0.78833 27.9456 3.02765 27.9274 6.2292C27.8925 8.59129 30.0447 9.90326 31.6543 10.6909C33.2994 11.4957 33.8587 12.021 33.8587 12.7383C33.842 13.8401 32.5293 14.3479 31.305 14.3479C29.6073 14.3479 28.6976 14.0861 27.3152 13.4731L26.7552 13.2104L26.1602 16.9021C27.1575 17.3565 28.995 17.7597 30.9027 17.7774C35.3646 17.7774 38.2694 15.5727 38.3038 12.1609C38.3208 10.2888 37.1844 8.85429 34.7344 7.68208C33.2471 6.92959 32.3363 6.4222 32.3363 5.65227C32.3537 4.95234 33.1067 4.23544 34.7856 4.23544C36.168 4.20032 37.1837 4.53262 37.9532 4.86514L38.3378 5.03978L38.9161 1.48849Z" fill="white"/>
<path d="M44.5674 11.7049C44.9176 10.7601 46.2651 7.10345 46.2651 7.10345C46.2475 7.13857 46.6146 6.14122 46.8246 5.52896L47.1218 6.94603C47.1218 6.94603 47.9271 10.8826 48.1019 11.7049C47.4374 11.7049 45.4073 11.7049 44.5674 11.7049ZM49.8164 1.08521H46.5272C45.5129 1.08521 44.7423 1.38239 44.3046 2.44972L37.9883 17.5308H42.4502C42.4502 17.5308 43.1848 15.501 43.3426 15.0638C43.8321 15.0638 48.1726 15.0638 48.8023 15.0638C48.9244 15.6412 49.3097 17.5308 49.3097 17.5308H53.247L49.8164 1.08521Z" fill="white"/>
<path d="M15.6941 1.08521L11.5296 12.2997L11.0745 10.0253C10.3046 7.40087 7.88993 4.54952 5.19531 3.13175L9.00982 17.5136H13.5066L20.1906 1.08521H15.6941Z" fill="white"/>
<path d="M7.66556 1.08521H0.823899L0.753906 1.4175C6.09083 2.78225 9.62537 6.07193 11.0775 10.026L9.59025 2.46763C9.34539 1.41727 8.59291 1.11985 7.66556 1.08521Z" fill="#C9CFE3"/>
</g>
<defs>
<clipPath id="clip0">
<rect width="52.4939" height="16.989" fill="white" transform="translate(0.753906 0.787354)"/>
</clipPath>
</defs>
</svg>
